<?xml version="1.0" encoding="utf-8"?>
<!-- Generator: Adobe Illustrator 24.1.1, SVG Export Plug-In . SVG Version: 6.00 Build 0)  -->
<svg version="1.1" id="Layer_1" xmlns="http://www.w3.org/2000/svg" xmlns:xlink="http://www.w3.org/1999/xlink" x="0px" y="0px"
	 viewBox="0 0 512 512" style="enable-background:new 0 0 512 512;" xml:space="preserve">
<style type="text/css">
	.st0{fill:#333333;}
</style>
<g id="XMLID_1_">
	<rect id="XMLID_8_" x="129.4" y="194.9" class="st0" width="194.9" height="64.7"/>
	<path id="XMLID_11_" class="st0" d="M507.3,439.4l-89.1-89.9c22.9-35.5,36.3-77.3,36.3-122.3C454.4,101.8,352.6,0,227.2,0
		S0,101.8,0,227.2s101.8,227.2,227.2,227.2c45,0,86.8-13.4,122.3-36.3l89.1,89.1c6.3,6.3,16.6,6.3,22.9,0l45.8-45.8
		C513.6,456,513.6,445.7,507.3,439.4z M226.4,389.7c-89.1,0-162.5-72.6-162.5-162.5S137.3,64.7,226.4,64.7s162.5,72.6,162.5,162.5
		S316.4,389.7,226.4,389.7z"/>
</g>
</svg>
