<?xml version="1.0" encoding="utf-8"?>
<!-- Generator: Adobe Illustrator 24.1.1, SVG Export Plug-In . SVG Version: 6.00 Build 0)  -->
<svg version="1.1" id="Layer_1" xmlns="http://www.w3.org/2000/svg" xmlns:xlink="http://www.w3.org/1999/xlink" x="0px" y="0px"
	 viewBox="0 0 512 512" style="enable-background:new 0 0 512 512;" xml:space="preserve">
<style type="text/css">
	.st0{fill:#ffffff;}
</style>
<g id="XMLID_7_">
	<path id="XMLID_13_" class="st0" d="M341.7,0.5l65.2,65.2l-82.7,80.8l39.9,39.9l81.8-81.8l65.2,65.2V0.5H341.7z M1,170.8l65.2-65.2
		l81.8,81.8l39.9-39.9l-81.8-81.8l65.2-65.2H1V170.8z M171.3,511.5l-65.2-65.2l81.8-81.8L147,323.7l-81.8,81.8L0,340.2v170.3h171.3
		V511.5z M512,341.2l-65.2,65.2L365,323.7l-40.9,40.9l81.8,81.8l-65.2,65.2H511V341.2H512z"/>
</g>
</svg>
